<svg width="30" height="40" viewBox="0 0 30 40" fill="none" xmlns="http://www.w3.org/2000/svg">
<circle cx="15" cy="14" r="7" fill="white"/>
<path d="M15.0001 39C14.5667 39 14.1952 38.8733 13.8858 38.62C13.5762 38.3666 13.3441 38.0342 13.1893 37.6225C12.6012 35.8492 11.8583 34.1867 10.9608 32.635C10.0941 31.0833 8.87148 29.2625 7.29287 27.1725C5.71425 25.0825 4.42982 23.0875 3.43928 21.1875C2.47976 19.2875 2 16.9916 2 14.3C2 10.595 3.25357 7.46 5.76072 4.895C8.29884 2.29833 11.3786 1 15.0001 1C18.6215 1 21.6858 2.29833 24.1929 4.895C26.7309 7.46 28 10.595 28 14.3C28 17.1817 27.4583 19.5883 26.375 21.52C25.3227 23.42 24.1 25.3042 22.7071 27.1725C21.0357 29.4525 19.7666 31.3525 18.9001 32.8725C18.0643 34.3608 17.3679 35.9441 16.8108 37.6225C16.656 38.0658 16.4084 38.4142 16.0679 38.6675C15.7583 38.8892 15.4024 39 15.0001 39ZM15.0001 19.05C16.3 19.05 17.3988 18.5908 18.2965 17.6725C19.1941 16.7542 19.6428 15.63 19.6428 14.3C19.6428 12.9701 19.1941 11.8458 18.2965 10.9275C17.3988 10.0091 16.3 9.55005 15.0001 9.55005C13.7 9.55005 12.6012 10.0091 11.7035 10.9275C10.806 11.8458 10.3572 12.9701 10.3572 14.3C10.3572 15.63 10.806 16.7542 11.7035 17.6725C12.6012 18.5908 13.7 19.05 15.0001 19.05Z" fill="#FDB022" stroke="white"/>
</svg>
