<svg width="512" height="512" viewBox="0 0 512 512" fill="none" xmlns="http://www.w3.org/2000/svg">
<g clip-path="url(#clip0_3_1992)">
<rect width="512" height="512" fill="#A31621" fill-opacity="0.1"/>
<path d="M256.5 94C194.391 94 144 141.961 144 201.031C144 269 219 376.711 246.539 413.914C247.682 415.485 249.18 416.762 250.912 417.644C252.643 418.525 254.558 418.984 256.5 418.984C258.442 418.984 260.357 418.525 262.088 417.644C263.82 416.762 265.318 415.485 266.461 413.914C294 376.727 369 269.055 369 201.031C369 141.961 318.609 94 256.5 94Z" stroke="#A31621" stroke-width="24" stroke-linecap="round" stroke-linejoin="round"/>
<path d="M256.5 244C277.211 244 294 227.211 294 206.5C294 185.789 277.211 169 256.5 169C235.789 169 219 185.789 219 206.5C219 227.211 235.789 244 256.5 244Z" stroke="#A31621" stroke-width="24" stroke-linecap="round" stroke-linejoin="round"/>
</g>
<defs>
<clipPath id="clip0_3_1992">
<rect width="512" height="512" fill="white"/>
</clipPath>
</defs>
</svg>
