<svg width="400" height="100" viewBox="0 0 400 100" fill="none" xmlns="http://www.w3.org/2000/svg">
<path d="M42.7143 73.1L17 50L42.7143 26.9M81.2857 73.1L107 50L81.2857 26.9M71.6429 17L52.3571 83" stroke="#A31621" stroke-width="8" stroke-linecap="round" stroke-linejoin="round"/>
<path d="M159.026 79H137.521V20.8182H158.998C164.926 20.8182 170.03 21.983 174.31 24.3125C178.61 26.6231 181.924 29.9564 184.254 34.3125C186.583 38.6496 187.748 43.839 187.748 49.8807C187.748 55.9413 186.583 61.1496 184.254 65.5057C181.943 69.8617 178.638 73.2045 174.339 75.5341C170.04 77.8447 164.935 79 159.026 79ZM151.583 67.0114H158.487C161.744 67.0114 164.5 66.4621 166.754 65.3636C169.026 64.2462 170.74 62.4375 171.896 59.9375C173.07 57.4186 173.657 54.0663 173.657 49.8807C173.657 45.6951 173.07 42.3617 171.896 39.8807C170.721 37.3807 168.988 35.5814 166.697 34.483C164.424 33.3655 161.621 32.8068 158.288 32.8068H151.583V67.0114ZM195.958 79V20.8182H236.526V32.2386H210.021V44.1705H234.452V55.6193H210.021V67.5795H236.526V79H195.958ZM245.333 20.8182H262.748L277.521 56.8409H278.202L292.975 20.8182H310.39V79H296.697V43.2614H296.214L282.237 78.6307H273.487L259.509 43.0625H259.026V79H245.333V20.8182ZM374.076 49.9091C374.076 56.3106 372.845 61.7367 370.383 66.1875C367.921 70.6383 364.587 74.0189 360.383 76.3295C356.197 78.6402 351.5 79.7955 346.292 79.7955C341.065 79.7955 336.358 78.6307 332.173 76.3011C327.987 73.9716 324.663 70.5909 322.201 66.1591C319.758 61.7083 318.536 56.2917 318.536 49.9091C318.536 43.5076 319.758 38.0814 322.201 33.6307C324.663 29.1799 327.987 25.7992 332.173 23.4886C336.358 21.178 341.065 20.0227 346.292 20.0227C351.5 20.0227 356.197 21.178 360.383 23.4886C364.587 25.7992 367.921 29.1799 370.383 33.6307C372.845 38.0814 374.076 43.5076 374.076 49.9091ZM359.701 49.9091C359.701 46.1212 359.161 42.9205 358.082 40.3068C357.021 37.6932 355.487 35.714 353.479 34.3693C351.491 33.0246 349.095 32.3523 346.292 32.3523C343.508 32.3523 341.112 33.0246 339.104 34.3693C337.097 35.714 335.553 37.6932 334.474 40.3068C333.413 42.9205 332.883 46.1212 332.883 49.9091C332.883 53.697 333.413 56.8977 334.474 59.5114C335.553 62.125 337.097 64.1042 339.104 65.4489C341.112 66.7936 343.508 67.4659 346.292 67.4659C349.095 67.4659 351.491 66.7936 353.479 65.4489C355.487 64.1042 357.021 62.125 358.082 59.5114C359.161 56.8977 359.701 53.697 359.701 49.9091Z" fill="#A31621"/>
</svg>
