<svg width="250" height="100" viewBox="0 0 250 100" fill="none" xmlns="http://www.w3.org/2000/svg">
<g clip-path="url(#clip0_10_2005)">
<rect width="250" height="100" fill="#A31621"/>
<path d="M28.0263 78H6.5206V19.8182H27.9979C33.9259 19.8182 39.0301 20.983 43.3104 23.3125C47.6096 25.6231 50.924 28.9564 53.2536 33.3125C55.5831 37.6496 56.7479 42.839 56.7479 48.8807C56.7479 54.9413 55.5831 60.1496 53.2536 64.5057C50.9429 68.8617 47.638 72.2045 43.3388 74.5341C39.0395 76.8447 33.9354 78 28.0263 78ZM20.5831 66.0114H27.4865C30.7441 66.0114 33.4998 65.4621 35.7536 64.3636C38.0263 63.2462 39.7403 61.4375 40.8956 58.9375C42.0698 56.4186 42.657 53.0663 42.657 48.8807C42.657 44.6951 42.0698 41.3617 40.8956 38.8807C39.7214 36.3807 37.9884 34.5814 35.6967 33.483C33.424 32.3655 30.621 31.8068 27.2876 31.8068H20.5831V66.0114ZM64.9581 78V19.8182H105.526V31.2386H79.0206V43.1705H103.452V54.6193H79.0206V66.5795H105.526V78H64.9581ZM114.333 19.8182H131.748L146.521 55.8409H147.202L161.975 19.8182H179.39V78H165.697V42.2614H165.214L151.237 77.6307H142.487L128.509 42.0625H128.026V78H114.333V19.8182ZM243.076 48.9091C243.076 55.3106 241.845 60.7367 239.383 65.1875C236.921 69.6383 233.587 73.0189 229.383 75.3295C225.197 77.6402 220.5 78.7955 215.292 78.7955C210.065 78.7955 205.358 77.6307 201.173 75.3011C196.987 72.9716 193.663 69.5909 191.201 65.1591C188.758 60.7083 187.536 55.2917 187.536 48.9091C187.536 42.5076 188.758 37.0814 191.201 32.6307C193.663 28.1799 196.987 24.7992 201.173 22.4886C205.358 20.178 210.065 19.0227 215.292 19.0227C220.5 19.0227 225.197 20.178 229.383 22.4886C233.587 24.7992 236.921 28.1799 239.383 32.6307C241.845 37.0814 243.076 42.5076 243.076 48.9091ZM228.701 48.9091C228.701 45.1212 228.161 41.9205 227.082 39.3068C226.021 36.6932 224.487 34.714 222.479 33.3693C220.491 32.0246 218.095 31.3523 215.292 31.3523C212.508 31.3523 210.112 32.0246 208.104 33.3693C206.097 34.714 204.553 36.6932 203.474 39.3068C202.413 41.9205 201.883 45.1212 201.883 48.9091C201.883 52.697 202.413 55.8977 203.474 58.5114C204.553 61.125 206.097 63.1042 208.104 64.4489C210.112 65.7936 212.508 66.4659 215.292 66.4659C218.095 66.4659 220.491 65.7936 222.479 64.4489C224.487 63.1042 226.021 61.125 227.082 58.5114C228.161 55.8977 228.701 52.697 228.701 48.9091Z" fill="white"/>
</g>
<defs>
<clipPath id="clip0_10_2005">
<rect width="250" height="100" fill="white"/>
</clipPath>
</defs>
</svg>
