<svg width="512" height="100" viewBox="0 0 512 100" fill="none" xmlns="http://www.w3.org/2000/svg">
<g clip-path="url(#clip0_7_2936)">
<path d="M70.2857 80.8L36 50L70.2857 19.2M121.714 80.8L156 50L121.714 19.2M108.857 6L83.1429 94" stroke="white" stroke-width="8" stroke-linecap="round" stroke-linejoin="round"/>
<path d="M220.361 86H197.918V13.2727H221.356C228.411 13.2727 234.448 14.7287 239.466 17.6406C244.485 20.5289 248.332 24.6837 251.008 30.1051C253.683 35.5028 255.02 41.9659 255.02 49.4943C255.02 57.0701 253.671 63.5923 250.972 69.0611C248.273 74.5062 244.343 78.6965 239.182 81.6321C234.021 84.544 227.748 86 220.361 86ZM206.725 78.1875H219.793C225.806 78.1875 230.79 77.0275 234.743 74.7074C238.697 72.3873 241.644 69.0848 243.586 64.7997C245.527 60.5147 246.498 55.4129 246.498 49.4943C246.498 43.6231 245.539 38.5687 243.621 34.331C241.704 30.0696 238.839 26.8026 235.028 24.5298C231.216 22.2334 226.469 21.0852 220.787 21.0852H206.725V78.1875ZM269.793 86V13.2727H313.685V21.0852H278.6V45.6591H311.412V53.4716H278.6V78.1875H314.253V86H269.793ZM329.559 13.2727H340.07L364.786 73.642H365.638L390.354 13.2727H400.866V86H392.627V30.7443H391.917L369.189 86H361.235L338.508 30.7443H337.797V86H329.559V13.2727ZM479.887 49.6364C479.887 57.3068 478.502 63.9356 475.732 69.5227C472.963 75.1098 469.163 79.4186 464.333 82.4489C459.504 85.4792 453.988 86.9943 447.785 86.9943C441.582 86.9943 436.066 85.4792 431.237 82.4489C426.407 79.4186 422.607 75.1098 419.838 69.5227C417.068 63.9356 415.683 57.3068 415.683 49.6364C415.683 41.9659 417.068 35.3371 419.838 29.75C422.607 24.1629 426.407 19.8542 431.237 16.8239C436.066 13.7936 441.582 12.2784 447.785 12.2784C453.988 12.2784 459.504 13.7936 464.333 16.8239C469.163 19.8542 472.963 24.1629 475.732 29.75C478.502 35.3371 479.887 41.9659 479.887 49.6364ZM471.365 49.6364C471.365 43.339 470.311 38.0241 468.204 33.6918C466.121 29.3594 463.292 26.0805 459.717 23.8551C456.166 21.6297 452.188 20.517 447.785 20.517C443.382 20.517 439.392 21.6297 435.818 23.8551C432.267 26.0805 429.437 29.3594 427.33 33.6918C425.247 38.0241 424.205 43.339 424.205 49.6364C424.205 55.9337 425.247 61.2486 427.33 65.581C429.437 69.9134 432.267 73.1922 435.818 75.4176C439.392 77.643 443.382 78.7557 447.785 78.7557C452.188 78.7557 456.166 77.643 459.717 75.4176C463.292 73.1922 466.121 69.9134 468.204 65.581C470.311 61.2486 471.365 55.9337 471.365 49.6364Z" fill="white"/>
</g>
<defs>
<clipPath id="clip0_7_2936">
<rect width="512" height="100" fill="white"/>
</clipPath>
</defs>
</svg>
