<svg width="30" height="25" viewBox="0 0 30 25" fill="none" xmlns="http://www.w3.org/2000/svg">
<g clip-path="url(#clip0_6_2852)">
<mask id="mask0_6_2852" style="mask-type:luminance" maskUnits="userSpaceOnUse" x="1" y="0" width="29" height="24">
<path d="M29.2031 0.703125H1.20312V23.7031H29.2031V0.703125Z" fill="white"/>
</mask>
<g mask="url(#mask0_6_2852)">
<path d="M15.2383 0.713019C18.3987 0.713019 21.5603 0.730109 24.7206 0.703254C25.7536 0.694709 26.4663 1.11096 27.0184 1.98008C32.5261 10.6628 27.0644 22.3446 16.9019 23.5958C8.49474 24.6322 1.1169 17.9758 1.20389 9.41279C1.23288 6.68457 1.99881 4.16754 3.46061 1.86656C3.96317 1.07678 4.64333 0.703254 5.57477 0.708137C8.79555 0.722785 12.0175 0.71424 15.2383 0.71424V0.713019ZM7.14409 12.954C8.88616 12.9491 10.2731 11.527 10.2634 9.75335C10.2537 8.02976 8.8475 6.61133 7.14046 6.60401C5.42014 6.59668 3.97405 8.05295 3.98009 9.78875C3.98613 11.5477 5.39718 12.9601 7.14288 12.9552L7.14409 12.954ZM23.2347 12.954C24.9901 12.9625 26.4059 11.5673 26.4216 9.81073C26.4374 8.07004 25.0118 6.61377 23.2842 6.60401C21.5567 6.59546 20.1359 8.03342 20.1383 9.78998C20.1408 11.5282 21.5264 12.9442 23.2347 12.9527V12.954ZM15.2214 12.9527C16.9635 12.9454 18.354 11.5172 18.3395 9.74969C18.3262 8.02732 16.9188 6.61255 15.2105 6.60523C13.4854 6.5979 12.061 8.0383 12.061 9.79119C12.061 11.549 13.4721 12.9601 15.2214 12.9527ZM11.1803 20.195C12.9212 20.1901 14.3347 18.7485 14.3117 17.0005C14.2888 15.272 12.8849 13.8597 11.1815 13.8512C9.4443 13.8438 8.03083 15.2708 8.03445 17.031C8.03687 18.8059 9.42376 20.1999 11.1815 20.195H11.1803ZM22.3697 17.0457C22.3757 15.283 20.9695 13.8487 19.2371 13.8512C17.5095 13.8536 16.084 15.3001 16.09 17.0457C16.0961 18.7717 17.489 20.1804 19.2069 20.195C20.9623 20.2109 22.3637 18.8144 22.3697 17.0457ZM11.0873 6.32569C11.9789 6.33302 12.746 5.56155 12.746 4.65947C12.746 3.77204 12.0248 3.03109 11.1429 3.01155C10.2223 2.9908 9.47933 3.70856 9.46363 4.63383C9.44792 5.54934 10.1873 6.31959 11.0861 6.32691L11.0873 6.32569ZM17.6593 4.65092C17.6569 5.56033 18.4096 6.32569 19.3072 6.32691C20.2024 6.32691 20.9538 5.55422 20.9417 4.64238C20.9296 3.7403 20.2217 3.02498 19.3289 3.01278C18.412 3.00057 17.6618 3.73542 17.6593 4.65092Z" fill="#053C5E"/>
<path d="M8.68243 9.78216C8.68485 10.6366 8.0059 11.3422 7.16748 11.3568C6.30007 11.3727 5.57763 10.6672 5.57038 9.79559C5.56193 8.93989 6.30611 8.1965 7.1542 8.21115C7.9914 8.2258 8.68002 8.93379 8.68243 9.78216Z" fill="#053C5E"/>
<path d="M23.269 11.3554C22.4257 11.3579 21.7335 10.6706 21.719 9.81858C21.7045 8.94458 22.4148 8.20729 23.2702 8.21095C24.1001 8.21339 24.8165 8.92505 24.8286 9.75755C24.8419 10.6279 24.1327 11.3542 23.269 11.3566V11.3554Z" fill="#053C5E"/>
<path d="M16.7515 9.80744C16.7383 10.6851 16.0158 11.3821 15.1484 11.3565C14.3112 11.3321 13.6322 10.6167 13.6407 9.7696C13.6492 8.90658 14.3994 8.17906 15.2463 8.21202C16.0835 8.24497 16.766 8.96639 16.7528 9.80744H16.7515Z" fill="#053C5E"/>
<path d="M12.785 17.0576C12.7705 17.9792 12.0191 18.703 11.1069 18.675C10.2299 18.6481 9.51346 17.8889 9.53159 17.0063C9.55092 16.0884 10.306 15.3645 11.2169 15.3913C12.0988 15.417 12.7995 16.1616 12.785 17.0576Z" fill="#053C5E"/>
<path d="M20.8664 17.04C20.8652 17.925 20.1403 18.6623 19.2572 18.6757C18.3512 18.6891 17.6058 17.9433 17.6094 17.0241C17.613 16.1074 18.3572 15.3762 19.2717 15.3908C20.1464 15.4043 20.8664 16.1501 20.8652 17.04H20.8664Z" fill="#053C5E"/>
</g>
</g>
<defs>
<clipPath id="clip0_6_2852">
<rect width="29" height="24" fill="white" transform="translate(0.5 0.5)"/>
</clipPath>
</defs>
</svg>
