<svg width="127" height="121" viewBox="0 0 127 121" fill="none" xmlns="http://www.w3.org/2000/svg">
<g clip-path="url(#clip0_6_2866)">
<mask id="mask0_6_2866" style="mask-type:luminance" maskUnits="userSpaceOnUse" x="0" y="0" width="127" height="121">
<path d="M126.338 0.5H0.65625V120.5H126.338V0.5Z" fill="white"/>
</mask>
<g mask="url(#mask0_6_2866)">
<path d="M119.164 55.2776C112.885 73.2312 125.052 97.0767 95.5707 103.056C84.8676 105.227 77.1207 100.031 66.7659 106.157C48.4417 116.998 37.4786 116.076 29.5758 107.737C23.6553 101.491 23.7271 93.1047 17.7437 89.6698C4.78308 82.2299 1.35523 71.0951 4.23317 57.7289C5.74621 50.7016 11.8918 45.9514 15.675 41.2C20.106 35.6355 21.6152 28.9623 23.7437 23.3005C33.2236 -1.91442 59.1149 14.4181 74.4887 9.32271C88.0228 4.83702 95.059 9.91267 99.195 17.6094C107.63 33.3055 128.87 27.5237 119.164 55.2776ZM126.338 65.2083C126.318 63.2229 124.692 61.6298 122.707 61.6501C120.721 61.6705 119.128 63.296 119.149 65.2814C119.169 67.2668 120.795 68.8599 122.78 68.8396C124.765 68.8192 126.358 67.193 126.338 65.2083ZM81.087 109.471C78.5491 106.985 74.476 107.026 71.9897 109.565C69.5034 112.103 69.5447 116.176 72.0831 118.662C74.621 121.149 78.6941 121.107 81.1804 118.569C83.6667 116.031 83.6254 111.958 81.087 109.471ZM1.42008 32.6152C2.43851 33.6336 4.0895 33.6336 5.10793 32.6152C6.12637 31.5967 6.12637 29.9457 5.10793 28.9273C4.0895 27.9089 2.43851 27.9089 1.42008 28.9273C0.401641 29.9457 0.401641 31.5967 1.42008 32.6152ZM102.473 15.8249C102.143 18.0869 103.709 20.1892 105.971 20.5198C108.234 20.8504 110.336 19.2846 110.666 17.022C110.997 14.7601 109.431 12.6577 107.168 12.3272C104.906 11.9966 102.804 13.5624 102.473 15.8249ZM63.7259 3.46702C63.4487 5.36213 64.7608 7.12309 66.6559 7.40027C68.551 7.67745 70.312 6.3653 70.5892 4.4702C70.8664 2.5751 69.5542 0.814129 67.6591 0.536951C65.764 0.259774 64.003 1.57192 63.7259 3.46702ZM8.72586 31.5503C9.12446 34.282 11.6623 36.1733 14.394 35.7747C17.1257 35.3761 19.017 32.8383 18.6184 30.1066C18.2198 27.3748 15.682 25.4836 12.9503 25.8822C10.2186 26.2808 8.32726 28.8186 8.72586 31.5503ZM111.077 12.064C110.956 12.8923 111.529 13.6616 112.357 13.7823C113.186 13.9031 113.955 13.3303 114.076 12.502C114.196 11.6736 113.624 10.9044 112.795 10.7836C111.967 10.6628 111.198 11.2356 111.077 12.064ZM20.312 109.438C20.4627 110.471 21.422 111.186 22.455 111.035C23.4881 110.885 24.2033 109.925 24.0526 108.892C23.902 107.859 22.9426 107.144 21.9096 107.295C20.8765 107.445 20.1613 108.405 20.312 109.438ZM22.1817 100.697C22.1543 98.0519 19.9884 95.9298 17.3432 95.9565C14.6979 95.9839 12.5758 98.1498 12.6025 100.795C12.6299 103.44 14.7958 105.562 17.4411 105.536C20.0863 105.508 22.2084 103.342 22.1817 100.697Z" fill="#1E506E" fill-opacity="0.2"/>
<path d="M82.5 62.5H64.5V90.5H82.5V62.5Z" fill="white"/>
<path d="M71.9225 32.8636V38.7816C71.9225 39.4313 71.3961 39.9577 70.7464 39.9577C70.0967 39.9577 69.5703 39.4313 69.5703 38.7816V32.8636C69.5703 32.2139 70.0967 31.6875 70.7464 31.6875C71.3961 31.6875 71.9225 32.2139 71.9225 32.8636Z" fill="#053C5E"/>
<path d="M74.735 32.8636V38.7816C74.735 39.4313 74.2086 39.9577 73.5589 39.9577C72.9092 39.9577 72.3828 39.4313 72.3828 38.7816V32.8636C72.3828 32.2139 72.9092 31.6875 73.5589 31.6875C74.2086 31.6875 74.735 32.2139 74.735 32.8636Z" fill="#053C5E"/>
<path d="M74.4361 32.3828H68.1094V39.2576H74.4361V32.3828Z" fill="#053C5E"/>
<path d="M34.0445 74.0397V74.1083C34.0445 79.5025 38.4177 83.8763 43.8125 83.8763H49.3433C48.9237 85.7562 49.2028 87.7364 50.1869 89.5019C50.2454 89.6068 50.3058 89.7104 50.3688 89.8115H43.8131C35.1399 89.8115 28.1094 82.7803 28.1094 74.1077V74.0397C28.1094 65.3665 35.1399 58.3359 43.8125 58.3359H64.6078L60.939 64.2711H43.8131C38.4183 64.2711 34.0445 68.6449 34.0445 74.0397Z" fill="#053C5E"/>
<path d="M94.4056 49.0477C94.2282 55.0058 90.6548 60.0617 85.6097 62.5741C85.5537 62.6021 85.4971 62.6301 85.4412 62.6568L82.3388 57.6396C82.3973 57.6167 82.4558 57.5926 82.5143 57.5671C86.1233 56.0337 88.6294 52.3904 88.4698 48.1946C88.2702 42.9085 83.7584 38.8023 78.4679 38.8023H63.3516V32.8672H78.7069C87.5245 32.8672 94.67 40.1723 94.4056 49.0477Z" fill="#053C5E"/>
<path d="M38.7419 43.866H48.7051V39.6016H38.7419C38.2289 39.6016 37.8125 40.0173 37.8125 40.531V42.9372C37.8125 43.4503 38.2283 43.866 38.7419 43.866Z" fill="#053C5E"/>
<path d="M38.7419 32.0535H48.7051V27.7891H38.7419C38.2289 27.7891 37.8125 28.2048 37.8125 28.7185V31.1247C37.8125 31.6378 38.2283 32.0535 38.7419 32.0535Z" fill="#053C5E"/>
<path d="M67.7745 30.4645H67.6848C65.9537 30.4645 64.3034 29.7334 63.1419 28.4499C61.1311 26.2261 58.2258 24.8275 54.9919 24.8281H52.8438V46.8218H54.9919C58.2258 46.8218 61.1311 45.4232 63.1419 43.1994C64.3034 41.9152 65.9537 41.1848 67.6848 41.1848H67.7745C68.4782 41.1848 69.0485 40.6145 69.0485 39.9108V31.7398C69.0485 31.036 68.4783 30.4645 67.7745 30.4645Z" fill="#053C5E"/>
<path d="M52.3658 23.75H49.1452C48.6983 23.75 48.3359 24.1123 48.3359 24.5593V47.0863C48.3359 47.5333 48.6983 47.8956 49.1452 47.8956H52.3658C52.8128 47.8956 53.1751 47.5333 53.1751 47.0863V24.5593C53.1751 24.1123 52.8128 23.75 52.3658 23.75Z" fill="#053C5E"/>
<path d="M95.593 82.2485L79.1066 55.5816C77.9388 53.6909 75.9147 52.5625 73.6922 52.5625C71.4697 52.5625 69.4461 53.6909 68.2777 55.5816L51.792 82.2485C50.5606 84.2396 50.5059 86.6496 51.6464 88.6947C52.7862 90.7399 54.8651 91.9611 57.2058 91.9611H90.1779C92.5192 91.9611 94.5981 90.7399 95.7379 88.6947C96.8784 86.6502 96.8244 84.2402 95.593 82.2485ZM69.8733 89.8187L72.2332 76.8409L65.7729 77.1143L69.5536 63.0571H76.9051L73.9801 71.7558L81.6114 71.5472L69.8733 89.8187Z" fill="#053C5E"/>
</g>
</g>
<defs>
<clipPath id="clip0_6_2866">
<rect width="126" height="120" fill="white" transform="translate(0.5 0.5)"/>
</clipPath>
</defs>
</svg>
