<svg width="60" height="60" viewBox="0 0 60 60" fill="none" xmlns="http://www.w3.org/2000/svg">
<rect width="60" height="60" fill="#CAD4DA"/>
<path d="M36.4146 12.9089C34.6772 11.033 32.2504 10 29.5718 10C26.879 10 24.4442 11.0268 22.7147 12.8911C20.9665 14.7759 20.1147 17.3375 20.3147 20.1035C20.7112 25.5606 24.8638 29.9999 29.5718 29.9999C34.2798 29.9999 38.4254 25.5615 38.828 20.1053C39.0307 17.3642 38.1736 14.808 36.4146 12.9089ZM45.286 49.9998H13.8576C13.4463 50.0051 13.0389 49.9187 12.6651 49.7468C12.2913 49.5749 11.9606 49.3218 11.6969 49.006C11.1166 48.3123 10.8827 47.365 11.0559 46.4069C11.8094 42.2266 14.1612 38.715 17.8576 36.2498C21.1415 34.0615 25.3013 32.857 29.5718 32.857C33.8423 32.857 38.0021 34.0624 41.286 36.2498C44.9825 38.7141 47.3342 42.2257 48.0878 46.406C48.261 47.3641 48.0271 48.3114 47.4467 49.0051C47.1832 49.3211 46.8524 49.5743 46.4787 49.7464C46.1049 49.9185 45.6975 50.005 45.286 49.9998Z" fill="#053C5E"/>
</svg>
