<svg width="206" height="188" viewBox="0 0 206 188" fill="none" xmlns="http://www.w3.org/2000/svg">
<g clip-path="url(#clip0_6_2890)">
<mask id="mask0_6_2890" style="mask-type:luminance" maskUnits="userSpaceOnUse" x="0" y="0" width="206" height="188">
<path d="M205.5 0.5H0.5V187.5H205.5V0.5Z" fill="white"/>
</mask>
<g mask="url(#mask0_6_2890)">
<mask id="mask1_6_2890" style="mask-type:luminance" maskUnits="userSpaceOnUse" x="1" y="0" width="204" height="188">
<path d="M204.629 0.5H1.375V187.185H204.629V0.5Z" fill="white"/>
</mask>
<g mask="url(#mask1_6_2890)">
<path d="M186.291 134.937C163.987 155.511 163.208 198.247 117.25 184.517C100.565 179.532 93.5674 166.391 74.4043 167.24C40.493 168.741 26.1962 159.078 20.9034 141.518C19.314 136.245 23.6558 116.51 17.8162 107.175C5.16762 86.9523 8.70225 68.6913 22.7793 52.0246C30.1808 43.2615 42.3898 41.1877 51.2774 37.3387C61.6864 32.8294 67.8622 26.3538 75.1042 19.9777C107.361 -8.42071 141.363 -1.21009 162.115 12.9151C179.623 24.8328 184.181 45.2738 184.224 59.226C184.311 87.6755 220.768 103.136 186.289 134.94L186.291 134.937ZM188.931 154.319C190.392 151.506 189.299 148.041 186.492 146.577C183.684 145.114 180.223 146.208 178.762 149.019C177.301 151.831 178.393 155.297 181.201 156.761C184.009 158.224 187.469 157.13 188.931 154.319ZM37.6674 14.5304C38.3359 16.73 40.6578 17.9706 42.8542 17.3012C45.0506 16.6317 46.2894 14.3064 45.621 12.1068C44.9525 9.90715 42.6305 8.66651 40.4341 9.33596C38.2378 10.0054 36.9989 12.3308 37.6674 14.5304ZM192.715 58.1557C190.553 61.0942 191.178 65.2314 194.112 67.3982C197.046 69.5638 201.178 68.9375 203.341 65.9991C205.504 63.0606 204.878 58.9234 201.944 56.7565C199.01 54.591 194.879 55.2172 192.715 58.1557ZM47.5361 18.0859C45.8067 22.9017 48.304 28.2088 53.1128 29.9394C57.9215 31.6713 63.2209 29.1704 64.9489 24.3546C66.6783 19.5388 64.1811 14.2317 59.3723 12.5011C54.5635 10.7705 49.2642 13.2701 47.5361 18.0859ZM191.103 46.3926C189.971 47.9319 190.298 50.1001 191.836 51.2346C193.373 52.3691 195.538 52.0416 196.671 50.5023C197.804 48.9629 197.477 46.7948 195.94 45.6602C194.403 44.5257 192.238 44.8532 191.105 46.3939L191.103 46.3926ZM6.59743 136.951C6.03492 138.519 6.84729 140.249 8.41315 140.812C9.97901 141.375 11.7058 140.562 12.2683 138.993C12.8308 137.425 12.0184 135.696 10.4526 135.133C8.8867 134.569 7.15993 135.383 6.59743 136.951ZM15.7872 126.043C17.7337 122.297 16.2791 117.679 12.5378 115.729C8.79643 113.78 4.18519 115.237 2.23866 118.983C0.292124 122.73 1.74679 127.348 5.48811 129.298C9.22943 131.247 13.8407 129.79 15.7872 126.043Z" fill="#1E506E" fill-opacity="0.2"/>
<path d="M162.825 67.7109H50.7847C46.8089 67.7109 43.5859 70.9387 43.5859 74.9202V128.334C43.5859 132.316 46.8089 135.544 50.7847 135.544H162.825C166.801 135.544 170.024 132.316 170.024 128.334V74.9202C170.024 70.9387 166.801 67.7109 162.825 67.7109Z" fill="#053C5E"/>
<path d="M157.677 35.2899V95.8426H57.9062V33.072C57.9062 24.9142 64.553 18.2734 72.6989 18.2734H142.773C150.933 18.2734 157.557 24.9142 157.557 33.072V33.4532C157.639 34.0506 157.677 34.6703 157.677 35.2912V35.2899Z" fill="white"/>
<path d="M144.539 73.0312H70.9375V77.4698H144.539V73.0312Z" fill="#BACEE2"/>
<path d="M144.539 60.7422H70.9375V65.1807H144.539V60.7422Z" fill="#BACEE2"/>
<path d="M144.539 48.4531H70.9375V52.8916H144.539V48.4531Z" fill="#BACEE2"/>
<path d="M144.539 36.1641H70.9375V40.6026H144.539V36.1641Z" fill="#BACEE2"/>
<path d="M157.68 84.1172H57.9219V95.8462H157.68V84.1172Z" fill="#EBF1F7"/>
<path d="M162.825 88H50.7847C46.8089 88 43.5859 91.2277 43.5859 95.2093V148.623C43.5859 152.605 46.8089 155.833 50.7847 155.833H162.825C166.801 155.833 170.024 152.605 170.024 148.623V95.2093C170.024 91.2277 166.801 88 162.825 88Z" fill="#053C5E"/>
<path d="M129.383 128.761L112.551 101.496C109.911 97.22 103.702 97.22 101.063 101.496L84.2305 128.761C81.4494 133.268 84.6858 139.081 89.9746 139.081H123.637C128.926 139.081 132.163 133.267 129.381 128.761H129.383ZM106.807 134.558C104.627 134.558 103.116 132.986 103.116 131.064C103.116 129.142 104.626 127.628 106.807 127.628C108.987 127.628 110.497 129.115 110.497 131.064C110.497 133.014 108.987 134.558 106.807 134.558ZM110.654 110.957L109.804 121.891C109.682 123.457 108.376 124.666 106.808 124.666C106.023 124.666 105.305 124.363 104.767 123.866C104.23 123.368 103.872 122.673 103.812 121.891L102.961 110.957C102.785 108.712 104.558 106.793 106.808 106.793C109.058 106.793 110.829 108.712 110.654 110.957Z" fill="white"/>
<path d="M170.026 143.102V148.622C170.026 152.603 166.802 155.832 162.827 155.832H50.7834C46.8079 155.832 43.5859 152.605 43.5859 148.622V143.102C61.989 144.857 83.6351 145.874 106.805 145.874C129.975 145.874 151.62 144.858 170.024 143.102H170.026Z" fill="#053C5E"/>
</g>
</g>
</g>
<defs>
<clipPath id="clip0_6_2890">
<rect width="205" height="187" fill="white" transform="translate(0.5 0.5)"/>
</clipPath>
</defs>
</svg>
