<svg width="142" height="138" viewBox="0 0 142 138" fill="none" xmlns="http://www.w3.org/2000/svg">
<g clip-path="url(#clip0_6_2912)">
<mask id="mask0_6_2912" style="mask-type:luminance" maskUnits="userSpaceOnUse" x="1" y="0" width="140" height="138">
<path d="M141 0.5H1V137.244H141V0.5Z" fill="white"/>
</mask>
<g mask="url(#mask0_6_2912)">
<path d="M130.728 91.3529C115.855 106.36 116.808 135.951 84.1958 128.051C72.3555 125.183 67.0026 116.336 53.6344 117.589C29.9779 119.807 19.6585 113.614 15.3288 101.656C13.4733 96.5309 16.3769 83.4785 11.9673 77.2233C2.41571 63.6737 4.24649 51.6999 13.5051 39.6797C18.3726 33.36 26.8365 31.5017 32.9148 28.5291C40.0341 25.0474 44.1253 20.3532 48.9651 15.6905C70.5212 -5.07563 94.5471 -1.27064 109.551 7.77902C122.21 15.415 126.112 29.3972 126.631 39.0472C127.689 58.725 153.72 68.1519 130.728 91.3529ZM135.089 106.93C136.313 104.283 135.14 101.152 132.468 99.939C129.796 98.7258 126.636 99.8885 125.412 102.536C124.188 105.184 125.362 108.315 128.033 109.528C130.706 110.741 133.865 109.578 135.089 106.93ZM66.5207 127.65C65.1393 123.967 61.0064 122.09 57.2896 123.458C53.5729 124.827 51.6791 128.922 53.0598 132.605C54.4412 136.288 58.5741 138.165 62.2908 136.797C66.0083 135.428 67.9014 131.333 66.5207 127.65ZM22.5989 13.2256C23.1431 14.7242 24.8104 15.5019 26.3227 14.9619C27.8351 14.4227 28.6199 12.7705 28.0757 11.272C27.5315 9.77339 25.8642 8.99569 24.3518 9.53566C22.8395 10.0749 22.054 11.7271 22.5989 13.2256ZM132.529 38.0135C131.12 40.1215 131.702 42.9622 133.829 44.3584C135.957 45.7546 138.823 45.1775 140.232 43.0695C141.641 40.9616 141.059 38.1208 138.932 36.7246C136.804 35.3284 133.938 35.9055 132.529 38.0135ZM30.4825 15.6008C29.5866 18.5215 31.2503 21.6098 34.1986 22.4969C37.1468 23.3847 40.2627 21.736 41.1579 18.8146C42.0539 15.8939 40.3901 12.8063 37.4419 11.9185C34.4944 11.0307 31.3784 12.6794 30.4825 15.6008ZM130.99 29.9323C130.252 31.0367 130.557 32.5248 131.672 33.2562C132.786 33.9876 134.288 33.6854 135.026 32.5809C135.764 31.4764 135.459 29.9884 134.345 29.2563C133.23 28.5249 131.728 28.8271 130.989 29.9316L130.99 29.9323ZM5.16506 98.9944C4.82608 100.099 5.45521 101.266 6.56982 101.602C7.68442 101.938 8.86272 101.315 9.2017 100.21C9.54068 99.1059 8.91155 97.9383 7.79694 97.6024C6.68234 97.2665 5.50404 97.8899 5.16506 98.9944ZM11.2073 91.1292C12.4372 88.4693 11.2582 85.3256 8.57398 84.1068C5.88973 82.888 2.71718 84.0563 1.48722 86.7162C0.257265 89.376 1.43627 92.5197 4.12052 93.7385C6.80477 94.9573 9.97732 93.789 11.2073 91.1292Z" fill="#1E506E" fill-opacity="0.2"/>
<path d="M99.8527 24.1235V28.4523H46V24.1235C46 23.4867 46.126 22.8752 46.3517 22.3114C46.3864 22.2294 46.4211 22.1481 46.4557 22.0709C46.7119 21.5155 47.0679 21.012 47.5024 20.5779C48.5576 19.5148 50.0862 18.8438 51.7931 18.8438H94.0384C97.2478 18.8438 99.8527 21.2147 99.8527 24.1235Z" fill="#053C5E"/>
<path d="M99.8527 103.906V108.235C99.8527 111.144 97.247 113.515 94.0384 113.515H51.7931C50.0862 113.515 48.5576 112.844 47.5024 111.781C47.0679 111.346 46.7119 110.842 46.4557 110.288C46.4211 110.21 46.3864 110.128 46.3517 110.046C46.126 109.483 46 108.872 46 108.235V103.906H99.8527Z" fill="#053C5E"/>
<path d="M72.9367 18.8438V28.453H46.0078V24.1242C46.0078 23.4874 46.1295 22.8759 46.3553 22.3121C46.39 22.2301 46.4246 22.1488 46.4593 22.0716C46.7155 21.5204 47.0715 21.0127 47.506 20.5786C48.5611 19.5155 50.0897 18.8444 51.7967 18.8444L72.9367 18.8438Z" fill="#053C5E"/>
<path d="M46.0078 103.906H72.9367V113.516H51.7967C50.0897 113.516 48.5611 112.844 47.506 111.781C47.0715 111.347 46.7155 110.839 46.4593 110.288C46.4246 110.211 46.39 110.129 46.3553 110.047C46.1295 109.483 46.0078 108.873 46.0078 108.236V103.906Z" fill="#053C5E"/>
<path d="M99.8536 26.2188H97.25V105.793H99.8536V26.2188Z" fill="#053C5E"/>
<path d="M48.6114 26.2188H46.0078V105.793H48.6114V26.2188Z" fill="#323548"/>
<path d="M48.6114 26.2188H46.0078V105.793H48.6114V26.2188Z" fill="#053C5E"/>
<path d="M95.2444 23.6484H50.6135C49.3945 23.6484 48.4062 24.6277 48.4062 25.8356V106.521C48.4062 107.729 49.3945 108.708 50.6135 108.708H95.2444C96.4635 108.708 97.4517 107.729 97.4517 106.521V25.8356C97.4517 24.6277 96.4635 23.6484 95.2444 23.6484Z" fill="#BACEE2"/>
<path d="M101.892 34.0859H43.9628C42.6113 34.0859 41.5156 35.1716 41.5156 36.5109V87.9225C41.5156 89.2617 42.6113 90.3474 43.9628 90.3474H101.892C103.243 90.3474 104.339 89.2617 104.339 87.9225V36.5109C104.339 35.1716 103.243 34.0859 101.892 34.0859Z" fill="white"/>
<path d="M70.0859 101.149V87.5625H88.6223L70.0859 101.149Z" fill="white"/>
<path d="M65.1617 62.7104C65.1617 64.6275 64.7965 66.2583 64.0654 67.6034C63.3351 68.9486 62.3414 69.9742 61.0857 70.6809C59.8294 71.3877 58.4192 71.7411 56.8539 71.7411C55.2886 71.7411 53.8621 71.3863 52.6093 70.6767C51.3558 69.9671 50.3656 68.9401 49.6381 67.595C48.9106 66.2506 48.5469 64.6219 48.5469 62.7104C48.5469 60.7989 48.9106 59.1624 49.6381 57.8173C50.3656 56.4729 51.3565 55.4466 52.6093 54.7398C53.8621 54.0331 55.2772 53.6797 56.8539 53.6797C58.4306 53.6797 59.8294 54.0331 61.0857 54.7398C62.3421 55.4466 63.3351 56.4722 64.0654 57.8173C64.7958 59.1624 65.1617 60.7932 65.1617 62.7104ZM61.3584 62.7104C61.3584 61.469 61.1719 60.4215 60.7996 59.5687C60.4273 58.7159 59.9027 58.0698 59.2271 57.629C58.5516 57.1881 57.7601 56.9681 56.8532 56.9681C55.9463 56.9681 55.1555 57.1881 54.4792 57.629C53.8037 58.0698 53.2798 58.7166 52.9068 59.5687C52.5345 60.4215 52.348 61.469 52.348 62.7104C52.348 63.9518 52.5345 64.9993 52.9068 65.852C53.2791 66.7048 53.8037 67.3516 54.4792 67.7918C55.1548 68.2326 55.9463 68.4527 56.8532 68.4527C57.7601 68.4527 58.5509 68.2326 59.2271 67.7918C59.9027 67.3509 60.4266 66.7048 60.7996 65.852C61.1719 64.9993 61.3584 63.9518 61.3584 62.7104Z" fill="#053C5E"/>
<path d="M67.2578 56.9866V53.9219H81.8289V56.9866H76.3977V71.5022H72.6898V56.9866H67.2578Z" fill="#053C5E"/>
<path d="M84.2344 71.5022V53.9219H91.2338C92.5791 53.9219 93.7259 54.1751 94.6726 54.6815C95.6201 55.188 96.3433 55.8891 96.843 56.7849C97.3427 57.6807 97.5925 58.712 97.5925 59.8793C97.5925 61.0467 97.3384 62.0765 96.8302 62.9695C96.3219 63.8625 95.5873 64.5573 94.6256 65.0552C93.664 65.5532 92.5015 65.8022 91.1391 65.8022H86.6781V62.8235H90.5333C91.2551 62.8235 91.8516 62.6993 92.3222 62.4503C92.7927 62.2014 93.145 61.855 93.3792 61.4114C93.6134 60.9677 93.7302 60.457 93.7302 59.8793C93.7302 59.3016 93.6134 58.7846 93.3792 58.3473C93.145 57.9093 92.7913 57.5693 92.3179 57.3259C91.8445 57.0826 91.2437 56.9613 90.5163 56.9613H87.9864V71.5029L84.2344 71.5022Z" fill="#053C5E"/>
</g>
</g>
<defs>
<clipPath id="clip0_6_2912">
<rect width="141" height="137" fill="white" transform="translate(0.5 0.5)"/>
</clipPath>
</defs>
</svg>
