<svg width="24" height="24" viewBox="0 0 24 24" fill="none" xmlns="http://www.w3.org/2000/svg">
<g clip-path="url(#clip0_5_2593)">
<path d="M24 12C24 5.37258 18.6274 0 12 0C5.37258 0 0 5.37258 0 12C0 18.6274 5.37258 24 12 24C18.6274 24 24 18.6274 24 12Z" fill="#A31621" fill-opacity="0.07"/>
<path fill-rule="evenodd" clip-rule="evenodd" d="M8.17808 5.41028C7.63829 5.48138 7.35245 5.61143 7.14885 5.8109C6.94526 6.01037 6.81251 6.29042 6.73994 6.81927C6.66523 7.36366 6.66406 8.08519 6.66406 9.11972V14.8321C6.92318 14.6547 7.21522 14.5197 7.53005 14.437C7.88217 14.3446 8.29276 14.3447 8.89448 14.3449H17.3307V9.11972C17.3307 8.08519 17.3296 7.36366 17.2548 6.81927C17.1823 6.29042 17.0495 6.01037 16.8459 5.8109C16.6423 5.61143 16.3565 5.48138 15.8167 5.41028C15.261 5.33709 14.5246 5.33594 13.4687 5.33594H10.5261C9.47019 5.33594 8.73374 5.33709 8.17808 5.41028ZM8.50314 8.399C8.50314 8.10047 8.75016 7.85846 9.05487 7.85846H14.9399C15.2446 7.85846 15.4916 8.10047 15.4916 8.399C15.4916 8.69753 15.2446 8.93954 14.9399 8.93954H9.05487C8.75016 8.93954 8.50314 8.69753 8.50314 8.399ZM9.05487 10.381C8.75016 10.381 8.50314 10.623 8.50314 10.9215C8.50314 11.2201 8.75016 11.4621 9.05487 11.4621H12.733C13.0377 11.4621 13.2848 11.2201 13.2848 10.9215C13.2848 10.623 13.0377 10.381 12.733 10.381H9.05487Z" fill="#A31621"/>
<path d="M8.97964 15.426H9.79047H12.733H17.3302C17.3278 16.1798 17.3158 16.7418 17.2548 17.1859C17.1823 17.7148 17.0495 17.9948 16.8459 18.1943C16.6423 18.3938 16.3565 18.5238 15.8167 18.5949C15.261 18.6681 14.5246 18.6693 13.4687 18.6693H10.5261C9.47016 18.6693 8.73371 18.6681 8.17805 18.5949C7.63826 18.5238 7.35242 18.3938 7.14882 18.1943C6.94523 17.9948 6.81248 17.7148 6.73991 17.1859C6.71243 16.9857 6.6949 16.7614 6.68372 16.5065C6.86462 16.0056 7.28646 15.6202 7.81562 15.4813C8.00841 15.4307 8.26 15.426 8.97964 15.426Z" fill="#A31621"/>
</g>
<defs>
<clipPath id="clip0_5_2593">
<rect width="24" height="24" fill="white"/>
</clipPath>
</defs>
</svg>
