<svg width="24" height="24" viewBox="0 0 24 24" fill="none" xmlns="http://www.w3.org/2000/svg">
<g clip-path="url(#clip0_5_2753)">
<path d="M24 12C24 5.37258 18.6274 0 12 0C5.37258 0 0 5.37258 0 12C0 18.6274 5.37258 24 12 24C18.6274 24 24 18.6274 24 12Z" fill="#A31621" fill-opacity="0.07"/>
<path d="M10.0026 10.6693C11.4754 10.6693 12.6693 9.47537 12.6693 8.00261C12.6693 6.52985 11.4754 5.33594 10.0026 5.33594C8.52985 5.33594 7.33594 6.52985 7.33594 8.00261C7.33594 9.47537 8.52985 10.6693 10.0026 10.6693Z" fill="#A31621"/>
<path d="M10.0026 17.9974C12.5799 17.9974 14.6693 16.8035 14.6693 15.3307C14.6693 13.8579 12.5799 12.664 10.0026 12.664C7.42528 12.664 5.33594 13.8579 5.33594 15.3307C5.33594 16.8035 7.42528 17.9974 10.0026 17.9974Z" fill="#A31621"/>
<path d="M17.9981 15.3331C17.9981 16.4377 16.6411 17.3331 14.9842 17.3331C15.4724 16.7996 15.808 16.1299 15.808 15.3341C15.808 14.5374 15.4716 13.867 14.9825 13.3332C16.6394 13.3332 17.9981 14.2286 17.9981 15.3331Z" fill="#A31621"/>
<path d="M15.9981 8C15.9981 9.10457 15.1027 10 13.9981 10C13.7573 10 13.5264 9.95742 13.3125 9.87939C13.6279 9.32466 13.808 8.68299 13.808 7.99926C13.808 7.31602 13.6282 6.6748 13.3132 6.12036C13.5269 6.04248 13.7575 6 13.9981 6C15.1027 6 15.9981 6.89543 15.9981 8Z" fill="#A31621"/>
</g>
<defs>
<clipPath id="clip0_5_2753">
<rect width="24" height="24" fill="white"/>
</clipPath>
</defs>
</svg>
