<svg width="24" height="24" viewBox="0 0 24 24" fill="none" xmlns="http://www.w3.org/2000/svg">
<g clip-path="url(#clip0_5_2742)">
<path d="M24 12C24 5.37258 18.6274 0 12 0C5.37258 0 0 5.37258 0 12C0 18.6274 5.37258 24 12 24C18.6274 24 24 18.6274 24 12Z" fill="#A31621" fill-opacity="0.07"/>
<path d="M12.0026 10.6693C13.4754 10.6693 14.6693 9.47537 14.6693 8.00261C14.6693 6.52985 13.4754 5.33594 12.0026 5.33594C10.5298 5.33594 9.33594 6.52985 9.33594 8.00261C9.33594 9.47537 10.5298 10.6693 12.0026 10.6693Z" fill="#A31621"/>
<path d="M12.0026 17.9974C14.5799 17.9974 16.6693 16.8035 16.6693 15.3307C16.6693 13.8579 14.5799 12.664 12.0026 12.664C9.42528 12.664 7.33594 13.8579 7.33594 15.3307C7.33594 16.8035 9.42528 17.9974 12.0026 17.9974Z" fill="#A31621"/>
</g>
<defs>
<clipPath id="clip0_5_2742">
<rect width="24" height="24" fill="white"/>
</clipPath>
</defs>
</svg>
