<svg width="24" height="24" viewBox="0 0 24 24" fill="none" xmlns="http://www.w3.org/2000/svg">
<g clip-path="url(#clip0_5_2811)">
<path d="M24 12C24 5.37258 18.6274 0 12 0C5.37258 0 0 5.37258 0 12C0 18.6274 5.37258 24 12 24C18.6274 24 24 18.6274 24 12Z" fill="#A31621" fill-opacity="0.07"/>
<mask id="mask0_5_2811" style="mask-type:luminance" maskUnits="userSpaceOnUse" x="4" y="4" width="16" height="16">
<path d="M20 4H4V20H20V4Z" fill="white"/>
</mask>
<g mask="url(#mask0_5_2811)">
<path d="M4.66406 11.9974C4.66406 11.9974 7.33073 6.66406 11.9974 6.66406C16.6641 6.66406 19.3307 11.9974 19.3307 11.9974C19.3307 11.9974 16.6641 17.3307 11.9974 17.3307C7.33073 17.3307 4.66406 11.9974 4.66406 11.9974Z" stroke="#A31621" stroke-width="2" stroke-linecap="round" stroke-linejoin="round"/>
<path d="M11.9974 13.9974C13.102 13.9974 13.9974 13.102 13.9974 11.9974C13.9974 10.8928 13.102 9.99741 11.9974 9.99741C10.8928 9.99741 9.99744 10.8928 9.99744 11.9974C9.99744 13.102 10.8928 13.9974 11.9974 13.9974Z" stroke="#A31621" stroke-width="2" stroke-linecap="round" stroke-linejoin="round"/>
</g>
</g>
<defs>
<clipPath id="clip0_5_2811">
<rect width="24" height="24" fill="white"/>
</clipPath>
</defs>
</svg>
